<mxfile host="app.diagrams.net" modified="2024-04-20T07:18:10.929Z" agent="Mozilla/5.0 (Windows NT 10.0; Win64; x64) AppleWebKit/537.36 (KHTML, like Gecko) Chrome/123.0.0.0 Safari/537.36" etag="WPaov13tEXLQn79b8RZi" version="24.2.5" type="device">
  <diagram name="페이지-1" id="Rc6oxng_f0L8kg2wAB6o">
    <mxGraphModel dx="2794" dy="3363" grid="0" gridSize="10" guides="1" tooltips="1" connect="1" arrows="1" fold="1" page="0" pageScale="1" pageWidth="827" pageHeight="1169" math="0" shadow="0">
      <root>
        <mxCell id="0" />
        <mxCell id="1" parent="0" />
        <mxCell id="S25MgAnCojjL08_6ieTA-5" value="Qna" style="rounded=0;whiteSpace=wrap;html=1;" parent="1" vertex="1">
          <mxGeometry x="543" y="592" width="120" height="60" as="geometry" />
        </mxCell>
        <mxCell id="S25MgAnCojjL08_6ieTA-6" value="User+(manager)" style="rounded=0;whiteSpace=wrap;html=1;" parent="1" vertex="1">
          <mxGeometry x="200" y="289" width="120" height="60" as="geometry" />
        </mxCell>
        <mxCell id="S25MgAnCojjL08_6ieTA-7" value="&#xa;&lt;span style=&quot;color: rgb(0, 0, 0); font-family: Helvetica; font-size: 12px; font-style: normal; font-variant-ligatures: normal; font-variant-caps: normal; font-weight: 400; letter-spacing: normal; orphans: 2; text-align: center; text-indent: 0px; text-transform: none; widows: 2; word-spacing: 0px; -webkit-text-stroke-width: 0px; white-space: normal; background-color: rgb(255, 255, 255); text-decoration-thickness: initial; text-decoration-style: initial; text-decoration-color: initial; display: inline !important; float: none;&quot;&gt;Notice&lt;/span&gt;&lt;div style=&quot;forced-color-adjust: none; color: rgb(0, 0, 0); font-family: Helvetica; font-size: 12px; font-style: normal; font-variant-ligatures: normal; font-variant-caps: normal; font-weight: 400; letter-spacing: normal; orphans: 2; text-align: center; text-indent: 0px; text-transform: none; widows: 2; word-spacing: 0px; -webkit-text-stroke-width: 0px; white-space: normal; background-color: rgb(255, 255, 255); text-decoration-thickness: initial; text-decoration-style: initial; text-decoration-color: initial;&quot;&gt;(only manager)&lt;/div&gt;&#xa;&#xa;" style="rounded=0;whiteSpace=wrap;html=1;" parent="1" vertex="1">
          <mxGeometry x="172" y="-90.5" width="120" height="60" as="geometry" />
        </mxCell>
        <mxCell id="S25MgAnCojjL08_6ieTA-11" value="MainAttraction&lt;div&gt;( 주요 명소)&lt;/div&gt;" style="rounded=0;whiteSpace=wrap;html=1;" parent="1" vertex="1">
          <mxGeometry x="735" y="-746" width="120" height="60" as="geometry" />
        </mxCell>
        <mxCell id="S25MgAnCojjL08_6ieTA-12" value="Enjoying&lt;div&gt;(체험할 거리)&lt;/div&gt;" style="rounded=0;whiteSpace=wrap;html=1;" parent="1" vertex="1">
          <mxGeometry x="28" y="-485.75" width="120" height="60" as="geometry" />
        </mxCell>
        <mxCell id="S25MgAnCojjL08_6ieTA-13" value="Lodgment&lt;div&gt;(숙박)&lt;/div&gt;" style="rounded=0;whiteSpace=wrap;html=1;" parent="1" vertex="1">
          <mxGeometry x="-280" y="460" width="120" height="60" as="geometry" />
        </mxCell>
        <mxCell id="S25MgAnCojjL08_6ieTA-15" value="Traffic" style="rounded=0;whiteSpace=wrap;html=1;" parent="1" vertex="1">
          <mxGeometry x="-313" y="-201.25" width="120" height="60" as="geometry" />
        </mxCell>
        <mxCell id="S25MgAnCojjL08_6ieTA-16" value="Tourism" style="rounded=0;whiteSpace=wrap;html=1;" parent="1" vertex="1">
          <mxGeometry x="574" y="-328" width="120" height="60" as="geometry" />
        </mxCell>
        <mxCell id="S25MgAnCojjL08_6ieTA-17" value="Shopping" style="rounded=0;whiteSpace=wrap;html=1;" parent="1" vertex="1">
          <mxGeometry x="-151" y="128" width="120" height="60" as="geometry" />
        </mxCell>
        <mxCell id="S25MgAnCojjL08_6ieTA-18" value="email" style="ellipse;whiteSpace=wrap;html=1;" parent="1" vertex="1">
          <mxGeometry x="131" y="454" width="98" height="65" as="geometry" />
        </mxCell>
        <mxCell id="S25MgAnCojjL08_6ieTA-19" value="pw" style="ellipse;whiteSpace=wrap;html=1;" parent="1" vertex="1">
          <mxGeometry x="215" y="493" width="98" height="65" as="geometry" />
        </mxCell>
        <mxCell id="S25MgAnCojjL08_6ieTA-20" value="name" style="ellipse;whiteSpace=wrap;html=1;" parent="1" vertex="1">
          <mxGeometry x="304" y="465" width="98" height="65" as="geometry" />
        </mxCell>
        <mxCell id="S25MgAnCojjL08_6ieTA-21" value="address" style="ellipse;whiteSpace=wrap;html=1;" parent="1" vertex="1">
          <mxGeometry x="298" y="181" width="98" height="65" as="geometry" />
        </mxCell>
        <mxCell id="S25MgAnCojjL08_6ieTA-22" value="&lt;font color=&quot;#ff3333&quot;&gt;id&lt;/font&gt;" style="ellipse;whiteSpace=wrap;html=1;" parent="1" vertex="1">
          <mxGeometry x="107" y="179" width="98" height="65" as="geometry" />
        </mxCell>
        <mxCell id="S25MgAnCojjL08_6ieTA-23" value="phoneNum" style="ellipse;whiteSpace=wrap;html=1;" parent="1" vertex="1">
          <mxGeometry x="203" y="162" width="98" height="65" as="geometry" />
        </mxCell>
        <mxCell id="S25MgAnCojjL08_6ieTA-24" value="" style="endArrow=classic;html=1;rounded=0;fontSize=12;startSize=8;endSize=8;curved=1;exitX=0.411;exitY=-0.006;exitDx=0;exitDy=0;exitPerimeter=0;" parent="1" source="S25MgAnCojjL08_6ieTA-6" target="S25MgAnCojjL08_6ieTA-22" edge="1">
          <mxGeometry width="50" height="50" relative="1" as="geometry">
            <mxPoint x="234" y="326" as="sourcePoint" />
            <mxPoint x="284" y="276" as="targetPoint" />
          </mxGeometry>
        </mxCell>
        <mxCell id="S25MgAnCojjL08_6ieTA-25" value="" style="endArrow=classic;html=1;rounded=0;fontSize=12;startSize=8;endSize=8;curved=1;exitX=0.433;exitY=0;exitDx=0;exitDy=0;exitPerimeter=0;entryX=0.5;entryY=1;entryDx=0;entryDy=0;" parent="1" source="S25MgAnCojjL08_6ieTA-6" target="S25MgAnCojjL08_6ieTA-23" edge="1">
          <mxGeometry width="50" height="50" relative="1" as="geometry">
            <mxPoint x="263.93" y="279.93" as="sourcePoint" />
            <mxPoint x="204.93" y="233.93" as="targetPoint" />
          </mxGeometry>
        </mxCell>
        <mxCell id="S25MgAnCojjL08_6ieTA-26" value="" style="endArrow=classic;html=1;rounded=0;fontSize=12;startSize=8;endSize=8;curved=1;exitX=0.424;exitY=0.046;exitDx=0;exitDy=0;exitPerimeter=0;entryX=0;entryY=1;entryDx=0;entryDy=0;" parent="1" source="S25MgAnCojjL08_6ieTA-6" target="S25MgAnCojjL08_6ieTA-21" edge="1">
          <mxGeometry width="50" height="50" relative="1" as="geometry">
            <mxPoint x="279.04" y="289" as="sourcePoint" />
            <mxPoint x="281.04" y="234" as="targetPoint" />
          </mxGeometry>
        </mxCell>
        <mxCell id="S25MgAnCojjL08_6ieTA-27" value="" style="endArrow=classic;html=1;rounded=0;fontSize=12;startSize=8;endSize=8;curved=1;exitX=0.5;exitY=1;exitDx=0;exitDy=0;entryX=0.615;entryY=0.038;entryDx=0;entryDy=0;entryPerimeter=0;" parent="1" source="S25MgAnCojjL08_6ieTA-6" target="S25MgAnCojjL08_6ieTA-18" edge="1">
          <mxGeometry width="50" height="50" relative="1" as="geometry">
            <mxPoint x="277.25" y="424.2" as="sourcePoint" />
            <mxPoint x="215.25" y="372.2" as="targetPoint" />
          </mxGeometry>
        </mxCell>
        <mxCell id="S25MgAnCojjL08_6ieTA-28" value="" style="endArrow=classic;html=1;rounded=0;fontSize=12;startSize=8;endSize=8;curved=1;exitX=0.5;exitY=1;exitDx=0;exitDy=0;entryX=0.5;entryY=0;entryDx=0;entryDy=0;" parent="1" source="S25MgAnCojjL08_6ieTA-6" target="S25MgAnCojjL08_6ieTA-19" edge="1">
          <mxGeometry width="50" height="50" relative="1" as="geometry">
            <mxPoint x="297.73" y="349" as="sourcePoint" />
            <mxPoint x="228.73" y="456" as="targetPoint" />
          </mxGeometry>
        </mxCell>
        <mxCell id="S25MgAnCojjL08_6ieTA-29" value="" style="endArrow=classic;html=1;rounded=0;fontSize=12;startSize=8;endSize=8;curved=1;exitX=0.5;exitY=1;exitDx=0;exitDy=0;entryX=0.214;entryY=0.008;entryDx=0;entryDy=0;entryPerimeter=0;" parent="1" source="S25MgAnCojjL08_6ieTA-6" target="S25MgAnCojjL08_6ieTA-20" edge="1">
          <mxGeometry width="50" height="50" relative="1" as="geometry">
            <mxPoint x="291" y="349" as="sourcePoint" />
            <mxPoint x="295" y="493" as="targetPoint" />
          </mxGeometry>
        </mxCell>
        <mxCell id="S25MgAnCojjL08_6ieTA-30" value="&lt;font color=&quot;#ff0000&quot;&gt;id&lt;/font&gt;" style="ellipse;whiteSpace=wrap;html=1;" parent="1" vertex="1">
          <mxGeometry x="-187" y="-32" width="120" height="80" as="geometry" />
        </mxCell>
        <mxCell id="S25MgAnCojjL08_6ieTA-31" value="name" style="ellipse;whiteSpace=wrap;html=1;" parent="1" vertex="1">
          <mxGeometry x="-298" y="16" width="120" height="80" as="geometry" />
        </mxCell>
        <mxCell id="S25MgAnCojjL08_6ieTA-32" value="price" style="ellipse;whiteSpace=wrap;html=1;" parent="1" vertex="1">
          <mxGeometry x="-351" y="96" width="120" height="80" as="geometry" />
        </mxCell>
        <mxCell id="S25MgAnCojjL08_6ieTA-33" value="sLevel&lt;div&gt;(품목 분류)&lt;/div&gt;" style="ellipse;whiteSpace=wrap;html=1;" parent="1" vertex="1">
          <mxGeometry x="-333" y="188" width="120" height="80" as="geometry" />
        </mxCell>
        <mxCell id="S25MgAnCojjL08_6ieTA-34" value="" style="endArrow=classic;html=1;rounded=0;fontSize=12;startSize=8;endSize=8;curved=1;entryX=1;entryY=1;entryDx=0;entryDy=0;exitX=0.5;exitY=0;exitDx=0;exitDy=0;" parent="1" source="S25MgAnCojjL08_6ieTA-17" target="S25MgAnCojjL08_6ieTA-31" edge="1">
          <mxGeometry width="50" height="50" relative="1" as="geometry">
            <mxPoint x="-103" y="125" as="sourcePoint" />
            <mxPoint x="-148" y="216" as="targetPoint" />
          </mxGeometry>
        </mxCell>
        <mxCell id="S25MgAnCojjL08_6ieTA-35" value="" style="endArrow=classic;html=1;rounded=0;fontSize=12;startSize=8;endSize=8;curved=1;exitX=0;exitY=0.5;exitDx=0;exitDy=0;entryX=1;entryY=0.5;entryDx=0;entryDy=0;" parent="1" source="S25MgAnCojjL08_6ieTA-17" target="S25MgAnCojjL08_6ieTA-32" edge="1">
          <mxGeometry width="50" height="50" relative="1" as="geometry">
            <mxPoint x="-124" y="336" as="sourcePoint" />
            <mxPoint x="-187" y="284" as="targetPoint" />
          </mxGeometry>
        </mxCell>
        <mxCell id="S25MgAnCojjL08_6ieTA-37" value="" style="endArrow=classic;html=1;rounded=0;fontSize=12;startSize=8;endSize=8;curved=1;exitX=0;exitY=0.5;exitDx=0;exitDy=0;entryX=1;entryY=0.5;entryDx=0;entryDy=0;" parent="1" source="S25MgAnCojjL08_6ieTA-17" target="S25MgAnCojjL08_6ieTA-33" edge="1">
          <mxGeometry width="50" height="50" relative="1" as="geometry">
            <mxPoint x="-134" y="382" as="sourcePoint" />
            <mxPoint x="-197" y="330" as="targetPoint" />
          </mxGeometry>
        </mxCell>
        <mxCell id="S25MgAnCojjL08_6ieTA-38" value="" style="endArrow=classic;html=1;rounded=0;fontSize=12;startSize=8;endSize=8;curved=1;entryX=0.5;entryY=1;entryDx=0;entryDy=0;exitX=0.5;exitY=0;exitDx=0;exitDy=0;" parent="1" source="S25MgAnCojjL08_6ieTA-17" target="S25MgAnCojjL08_6ieTA-30" edge="1">
          <mxGeometry width="50" height="50" relative="1" as="geometry">
            <mxPoint x="-72" y="121" as="sourcePoint" />
            <mxPoint x="-148" y="216" as="targetPoint" />
          </mxGeometry>
        </mxCell>
        <mxCell id="S25MgAnCojjL08_6ieTA-46" value=": FK" style="text;html=1;align=center;verticalAlign=middle;whiteSpace=wrap;rounded=0;fontSize=16;" parent="1" vertex="1">
          <mxGeometry x="-391" y="-594" width="60" height="30" as="geometry" />
        </mxCell>
        <mxCell id="S25MgAnCojjL08_6ieTA-47" value=": PK" style="text;html=1;align=center;verticalAlign=middle;whiteSpace=wrap;rounded=0;fontSize=16;" parent="1" vertex="1">
          <mxGeometry x="-391" y="-556.5" width="60" height="30" as="geometry" />
        </mxCell>
        <mxCell id="S25MgAnCojjL08_6ieTA-49" value="" style="rounded=1;whiteSpace=wrap;html=1;fillColor=#0000FF;" parent="1" vertex="1">
          <mxGeometry x="-484" y="-590.5" width="87" height="23" as="geometry" />
        </mxCell>
        <mxCell id="S25MgAnCojjL08_6ieTA-50" value="" style="rounded=1;whiteSpace=wrap;html=1;fillColor=#FF0000;" parent="1" vertex="1">
          <mxGeometry x="-484" y="-553" width="87" height="23" as="geometry" />
        </mxCell>
        <mxCell id="S25MgAnCojjL08_6ieTA-74" value="&lt;font color=&quot;#ff0000&quot;&gt;id&lt;/font&gt;" style="ellipse;whiteSpace=wrap;html=1;" parent="1" vertex="1">
          <mxGeometry x="-503" y="-261.75" width="106" height="60" as="geometry" />
        </mxCell>
        <mxCell id="S25MgAnCojjL08_6ieTA-77" value="num" style="ellipse;whiteSpace=wrap;html=1;" parent="1" vertex="1">
          <mxGeometry x="-414" y="-311.75" width="101" height="61.5" as="geometry" />
        </mxCell>
        <mxCell id="S25MgAnCojjL08_6ieTA-78" value="tLevel&lt;div&gt;(차 분류)&lt;/div&gt;" style="ellipse;whiteSpace=wrap;html=1;" parent="1" vertex="1">
          <mxGeometry x="-313" y="-349.75" width="94" height="61.5" as="geometry" />
        </mxCell>
        <mxCell id="S25MgAnCojjL08_6ieTA-79" value="" style="endArrow=classic;html=1;rounded=0;fontSize=12;startSize=8;endSize=8;curved=1;entryX=0.5;entryY=1;entryDx=0;entryDy=0;exitX=0.25;exitY=0;exitDx=0;exitDy=0;" parent="1" source="S25MgAnCojjL08_6ieTA-15" target="S25MgAnCojjL08_6ieTA-74" edge="1">
          <mxGeometry width="50" height="50" relative="1" as="geometry">
            <mxPoint x="-402" y="-101.25" as="sourcePoint" />
            <mxPoint x="-352" y="-151.25" as="targetPoint" />
          </mxGeometry>
        </mxCell>
        <mxCell id="S25MgAnCojjL08_6ieTA-80" value="" style="endArrow=classic;html=1;rounded=0;fontSize=12;startSize=8;endSize=8;curved=1;entryX=0.5;entryY=1;entryDx=0;entryDy=0;" parent="1" source="S25MgAnCojjL08_6ieTA-15" target="S25MgAnCojjL08_6ieTA-77" edge="1">
          <mxGeometry width="50" height="50" relative="1" as="geometry">
            <mxPoint x="19" y="-207.25" as="sourcePoint" />
            <mxPoint x="-81" y="-241.25" as="targetPoint" />
          </mxGeometry>
        </mxCell>
        <mxCell id="S25MgAnCojjL08_6ieTA-81" value="" style="endArrow=classic;html=1;rounded=0;fontSize=12;startSize=8;endSize=8;curved=1;entryX=0.5;entryY=1;entryDx=0;entryDy=0;exitX=0.5;exitY=0;exitDx=0;exitDy=0;" parent="1" source="S25MgAnCojjL08_6ieTA-15" target="S25MgAnCojjL08_6ieTA-78" edge="1">
          <mxGeometry width="50" height="50" relative="1" as="geometry">
            <mxPoint x="-118.21000000000004" y="-182.25" as="sourcePoint" />
            <mxPoint x="-129.21000000000004" y="-222.25" as="targetPoint" />
          </mxGeometry>
        </mxCell>
        <mxCell id="S25MgAnCojjL08_6ieTA-82" value="comment" style="ellipse;whiteSpace=wrap;html=1;" parent="1" vertex="1">
          <mxGeometry x="-222" y="-307.75" width="94" height="61.5" as="geometry" />
        </mxCell>
        <mxCell id="S25MgAnCojjL08_6ieTA-83" value="route" style="ellipse;whiteSpace=wrap;html=1;" parent="1" vertex="1">
          <mxGeometry x="-125" y="-256.75" width="94" height="61.5" as="geometry" />
        </mxCell>
        <mxCell id="S25MgAnCojjL08_6ieTA-84" value="" style="endArrow=classic;html=1;rounded=0;fontSize=12;startSize=8;endSize=8;curved=1;entryX=0;entryY=1;entryDx=0;entryDy=0;exitX=1;exitY=0.5;exitDx=0;exitDy=0;" parent="1" source="S25MgAnCojjL08_6ieTA-15" target="S25MgAnCojjL08_6ieTA-82" edge="1">
          <mxGeometry width="50" height="50" relative="1" as="geometry">
            <mxPoint x="-186" y="-85.25" as="sourcePoint" />
            <mxPoint x="-104" y="-121.25" as="targetPoint" />
          </mxGeometry>
        </mxCell>
        <mxCell id="S25MgAnCojjL08_6ieTA-85" value="" style="endArrow=classic;html=1;rounded=0;fontSize=12;startSize=8;endSize=8;curved=1;entryX=0;entryY=0.5;entryDx=0;entryDy=0;exitX=1;exitY=0.5;exitDx=0;exitDy=0;" parent="1" source="S25MgAnCojjL08_6ieTA-15" target="S25MgAnCojjL08_6ieTA-83" edge="1">
          <mxGeometry width="50" height="50" relative="1" as="geometry">
            <mxPoint x="-186" y="-37.25" as="sourcePoint" />
            <mxPoint x="-104" y="-73.25" as="targetPoint" />
          </mxGeometry>
        </mxCell>
        <mxCell id="S25MgAnCojjL08_6ieTA-86" value="등록" style="rhombus;whiteSpace=wrap;html=1;" parent="1" vertex="1">
          <mxGeometry x="554" y="415" width="80" height="80" as="geometry" />
        </mxCell>
        <mxCell id="S25MgAnCojjL08_6ieTA-87" value="" style="endArrow=classic;html=1;rounded=0;fontSize=12;startSize=8;endSize=8;curved=1;exitX=0.5;exitY=0;exitDx=0;exitDy=0;entryX=0.5;entryY=1;entryDx=0;entryDy=0;" parent="1" source="S25MgAnCojjL08_6ieTA-5" target="S25MgAnCojjL08_6ieTA-86" edge="1">
          <mxGeometry width="50" height="50" relative="1" as="geometry">
            <mxPoint x="407" y="598" as="sourcePoint" />
            <mxPoint x="457" y="548" as="targetPoint" />
          </mxGeometry>
        </mxCell>
        <mxCell id="S25MgAnCojjL08_6ieTA-89" style="edgeStyle=none;curved=1;rounded=0;orthogonalLoop=1;jettySize=auto;html=1;entryX=1;entryY=0.5;entryDx=0;entryDy=0;fontSize=12;startSize=8;endSize=8;" parent="1" source="S25MgAnCojjL08_6ieTA-6" target="S25MgAnCojjL08_6ieTA-6" edge="1">
          <mxGeometry relative="1" as="geometry" />
        </mxCell>
        <mxCell id="S25MgAnCojjL08_6ieTA-94" value="" style="endArrow=classic;html=1;rounded=0;fontSize=12;startSize=8;endSize=8;curved=1;exitX=1;exitY=0.5;exitDx=0;exitDy=0;" parent="1" source="S25MgAnCojjL08_6ieTA-6" edge="1">
          <mxGeometry width="50" height="50" relative="1" as="geometry">
            <mxPoint x="483" y="286" as="sourcePoint" />
            <mxPoint x="583" y="315" as="targetPoint" />
          </mxGeometry>
        </mxCell>
        <mxCell id="S25MgAnCojjL08_6ieTA-95" value="" style="endArrow=classic;html=1;rounded=0;fontSize=12;startSize=8;endSize=8;curved=1;entryX=0.5;entryY=0;entryDx=0;entryDy=0;" parent="1" target="S25MgAnCojjL08_6ieTA-86" edge="1">
          <mxGeometry width="50" height="50" relative="1" as="geometry">
            <mxPoint x="579" y="315" as="sourcePoint" />
            <mxPoint x="699" y="231" as="targetPoint" />
          </mxGeometry>
        </mxCell>
        <mxCell id="S25MgAnCojjL08_6ieTA-97" value="1" style="text;html=1;align=center;verticalAlign=middle;whiteSpace=wrap;rounded=0;fontSize=16;" parent="1" vertex="1">
          <mxGeometry x="512" y="377" width="60" height="30" as="geometry" />
        </mxCell>
        <mxCell id="S25MgAnCojjL08_6ieTA-100" value="title" style="ellipse;whiteSpace=wrap;html=1;" parent="1" vertex="1">
          <mxGeometry x="460" y="806" width="100" height="63" as="geometry" />
        </mxCell>
        <mxCell id="S25MgAnCojjL08_6ieTA-102" value="&lt;font color=&quot;#ff0000&quot;&gt;id&lt;/font&gt;" style="ellipse;whiteSpace=wrap;html=1;" parent="1" vertex="1">
          <mxGeometry x="307" y="726" width="99" height="63" as="geometry" />
        </mxCell>
        <mxCell id="S25MgAnCojjL08_6ieTA-103" value="comment" style="ellipse;whiteSpace=wrap;html=1;" parent="1" vertex="1">
          <mxGeometry x="553" y="845" width="100" height="63" as="geometry" />
        </mxCell>
        <mxCell id="S25MgAnCojjL08_6ieTA-104" value="qLevel&lt;div&gt;(질문자,답변자)&lt;/div&gt;" style="ellipse;whiteSpace=wrap;html=1;" parent="1" vertex="1">
          <mxGeometry x="659" y="825" width="100" height="63" as="geometry" />
        </mxCell>
        <mxCell id="S25MgAnCojjL08_6ieTA-105" value="resdate" style="ellipse;whiteSpace=wrap;html=1;" parent="1" vertex="1">
          <mxGeometry x="743" y="758" width="100" height="63" as="geometry" />
        </mxCell>
        <mxCell id="S25MgAnCojjL08_6ieTA-106" value="visited" style="ellipse;whiteSpace=wrap;html=1;" parent="1" vertex="1">
          <mxGeometry x="790" y="698" width="100" height="63" as="geometry" />
        </mxCell>
        <mxCell id="S25MgAnCojjL08_6ieTA-111" value="name" style="ellipse;whiteSpace=wrap;html=1;" parent="1" vertex="1">
          <mxGeometry x="-375" y="678" width="120" height="80" as="geometry" />
        </mxCell>
        <mxCell id="S25MgAnCojjL08_6ieTA-112" value="LLevel&lt;div&gt;(시설 종류)&lt;/div&gt;" style="ellipse;whiteSpace=wrap;html=1;" parent="1" vertex="1">
          <mxGeometry x="-255" y="697" width="120" height="80" as="geometry" />
        </mxCell>
        <mxCell id="S25MgAnCojjL08_6ieTA-113" value="locate" style="ellipse;whiteSpace=wrap;html=1;" parent="1" vertex="1">
          <mxGeometry x="-141" y="657" width="120" height="80" as="geometry" />
        </mxCell>
        <mxCell id="S25MgAnCojjL08_6ieTA-114" value="&lt;font color=&quot;#ff0000&quot;&gt;id&lt;/font&gt;" style="ellipse;whiteSpace=wrap;html=1;" parent="1" vertex="1">
          <mxGeometry x="-503" y="659" width="125" height="85" as="geometry" />
        </mxCell>
        <mxCell id="S25MgAnCojjL08_6ieTA-131" value="" style="endArrow=classic;html=1;rounded=0;fontSize=12;startSize=8;endSize=8;curved=1;exitX=0.5;exitY=1;exitDx=0;exitDy=0;entryX=0.979;entryY=0.329;entryDx=0;entryDy=0;entryPerimeter=0;" parent="1" source="S25MgAnCojjL08_6ieTA-13" target="S25MgAnCojjL08_6ieTA-114" edge="1">
          <mxGeometry width="50" height="50" relative="1" as="geometry">
            <mxPoint x="-389" y="470" as="sourcePoint" />
            <mxPoint x="-339" y="420" as="targetPoint" />
          </mxGeometry>
        </mxCell>
        <mxCell id="S25MgAnCojjL08_6ieTA-132" value="" style="endArrow=classic;html=1;rounded=0;fontSize=12;startSize=8;endSize=8;curved=1;exitX=0.5;exitY=1;exitDx=0;exitDy=0;entryX=1;entryY=0;entryDx=0;entryDy=0;" parent="1" source="S25MgAnCojjL08_6ieTA-13" target="S25MgAnCojjL08_6ieTA-111" edge="1">
          <mxGeometry width="50" height="50" relative="1" as="geometry">
            <mxPoint x="-217.19" y="547.04" as="sourcePoint" />
            <mxPoint x="-349.19" y="594.04" as="targetPoint" />
          </mxGeometry>
        </mxCell>
        <mxCell id="S25MgAnCojjL08_6ieTA-133" value="" style="endArrow=classic;html=1;rounded=0;fontSize=12;startSize=8;endSize=8;curved=1;exitX=0.5;exitY=1;exitDx=0;exitDy=0;entryX=0.5;entryY=0;entryDx=0;entryDy=0;" parent="1" source="S25MgAnCojjL08_6ieTA-13" target="S25MgAnCojjL08_6ieTA-112" edge="1">
          <mxGeometry width="50" height="50" relative="1" as="geometry">
            <mxPoint x="-125" y="567" as="sourcePoint" />
            <mxPoint x="-257" y="614" as="targetPoint" />
          </mxGeometry>
        </mxCell>
        <mxCell id="S25MgAnCojjL08_6ieTA-134" value="" style="endArrow=classic;html=1;rounded=0;fontSize=12;startSize=8;endSize=8;curved=1;exitX=0.5;exitY=1;exitDx=0;exitDy=0;entryX=0.5;entryY=0;entryDx=0;entryDy=0;" parent="1" source="S25MgAnCojjL08_6ieTA-13" target="S25MgAnCojjL08_6ieTA-113" edge="1">
          <mxGeometry width="50" height="50" relative="1" as="geometry">
            <mxPoint x="17" y="567" as="sourcePoint" />
            <mxPoint x="-115" y="614" as="targetPoint" />
          </mxGeometry>
        </mxCell>
        <mxCell id="S25MgAnCojjL08_6ieTA-135" value="price" style="ellipse;whiteSpace=wrap;html=1;" parent="1" vertex="1">
          <mxGeometry x="-24" y="621" width="120" height="80" as="geometry" />
        </mxCell>
        <mxCell id="S25MgAnCojjL08_6ieTA-137" value="" style="endArrow=classic;html=1;rounded=0;fontSize=12;startSize=8;endSize=8;curved=1;exitX=0.5;exitY=1;exitDx=0;exitDy=0;entryX=0;entryY=0;entryDx=0;entryDy=0;" parent="1" source="S25MgAnCojjL08_6ieTA-13" target="S25MgAnCojjL08_6ieTA-135" edge="1">
          <mxGeometry width="50" height="50" relative="1" as="geometry">
            <mxPoint x="-150.5" y="494" as="sourcePoint" />
            <mxPoint x="-11.5" y="631" as="targetPoint" />
          </mxGeometry>
        </mxCell>
        <mxCell id="S25MgAnCojjL08_6ieTA-138" value="" style="endArrow=classic;html=1;rounded=0;fontSize=12;startSize=8;endSize=8;curved=1;exitX=0.5;exitY=1;exitDx=0;exitDy=0;entryX=1;entryY=0;entryDx=0;entryDy=0;" parent="1" source="S25MgAnCojjL08_6ieTA-5" target="S25MgAnCojjL08_6ieTA-102" edge="1">
          <mxGeometry width="50" height="50" relative="1" as="geometry">
            <mxPoint x="300" y="646" as="sourcePoint" />
            <mxPoint x="350" y="596" as="targetPoint" />
          </mxGeometry>
        </mxCell>
        <mxCell id="S25MgAnCojjL08_6ieTA-139" value="" style="endArrow=classic;html=1;rounded=0;fontSize=12;startSize=8;endSize=8;curved=1;exitX=0.5;exitY=1;exitDx=0;exitDy=0;entryX=0.5;entryY=0;entryDx=0;entryDy=0;" parent="1" source="S25MgAnCojjL08_6ieTA-5" target="S25MgAnCojjL08_6ieTA-100" edge="1">
          <mxGeometry width="50" height="50" relative="1" as="geometry">
            <mxPoint x="649.06" y="661" as="sourcePoint" />
            <mxPoint x="554.06" y="744" as="targetPoint" />
          </mxGeometry>
        </mxCell>
        <mxCell id="S25MgAnCojjL08_6ieTA-140" value="" style="endArrow=classic;html=1;rounded=0;fontSize=12;startSize=8;endSize=8;curved=1;exitX=0.5;exitY=1;exitDx=0;exitDy=0;entryX=0.5;entryY=0;entryDx=0;entryDy=0;" parent="1" source="S25MgAnCojjL08_6ieTA-5" target="S25MgAnCojjL08_6ieTA-103" edge="1">
          <mxGeometry width="50" height="50" relative="1" as="geometry">
            <mxPoint x="720" y="664" as="sourcePoint" />
            <mxPoint x="625" y="747" as="targetPoint" />
          </mxGeometry>
        </mxCell>
        <mxCell id="S25MgAnCojjL08_6ieTA-141" value="" style="endArrow=classic;html=1;rounded=0;fontSize=12;startSize=8;endSize=8;curved=1;exitX=0.5;exitY=1;exitDx=0;exitDy=0;entryX=0;entryY=0;entryDx=0;entryDy=0;" parent="1" source="S25MgAnCojjL08_6ieTA-5" target="S25MgAnCojjL08_6ieTA-104" edge="1">
          <mxGeometry width="50" height="50" relative="1" as="geometry">
            <mxPoint x="689" y="647" as="sourcePoint" />
            <mxPoint x="596" y="801" as="targetPoint" />
          </mxGeometry>
        </mxCell>
        <mxCell id="S25MgAnCojjL08_6ieTA-142" value="" style="endArrow=classic;html=1;rounded=0;fontSize=12;startSize=8;endSize=8;curved=1;exitX=0.5;exitY=1;exitDx=0;exitDy=0;entryX=0;entryY=0.5;entryDx=0;entryDy=0;" parent="1" source="S25MgAnCojjL08_6ieTA-5" target="S25MgAnCojjL08_6ieTA-105" edge="1">
          <mxGeometry width="50" height="50" relative="1" as="geometry">
            <mxPoint x="805" y="579" as="sourcePoint" />
            <mxPoint x="712" y="733" as="targetPoint" />
          </mxGeometry>
        </mxCell>
        <mxCell id="S25MgAnCojjL08_6ieTA-143" value="" style="endArrow=classic;html=1;rounded=0;fontSize=12;startSize=8;endSize=8;curved=1;entryX=0;entryY=0.5;entryDx=0;entryDy=0;" parent="1" target="S25MgAnCojjL08_6ieTA-106" edge="1">
          <mxGeometry width="50" height="50" relative="1" as="geometry">
            <mxPoint x="609" y="649" as="sourcePoint" />
            <mxPoint x="736" y="558" as="targetPoint" />
          </mxGeometry>
        </mxCell>
        <mxCell id="S25MgAnCojjL08_6ieTA-144" value="&lt;font color=&quot;#0000ff&quot;&gt;uesrId&lt;/font&gt;" style="ellipse;whiteSpace=wrap;html=1;" parent="1" vertex="1">
          <mxGeometry x="361" y="789" width="99" height="63" as="geometry" />
        </mxCell>
        <mxCell id="S25MgAnCojjL08_6ieTA-145" value="" style="endArrow=classic;html=1;rounded=0;fontSize=12;startSize=8;endSize=8;curved=1;exitX=0.5;exitY=1;exitDx=0;exitDy=0;entryX=0.691;entryY=0.025;entryDx=0;entryDy=0;entryPerimeter=0;" parent="1" source="S25MgAnCojjL08_6ieTA-5" target="S25MgAnCojjL08_6ieTA-144" edge="1">
          <mxGeometry width="50" height="50" relative="1" as="geometry">
            <mxPoint x="579.06" y="606.5" as="sourcePoint" />
            <mxPoint x="368.06" y="690.5" as="targetPoint" />
          </mxGeometry>
        </mxCell>
        <mxCell id="S25MgAnCojjL08_6ieTA-148" value="&lt;font color=&quot;#ff0000&quot;&gt;id&lt;/font&gt;" style="ellipse;whiteSpace=wrap;html=1;" parent="1" vertex="1">
          <mxGeometry x="914" y="-854" width="106" height="60" as="geometry" />
        </mxCell>
        <mxCell id="S25MgAnCojjL08_6ieTA-149" value="name" style="ellipse;whiteSpace=wrap;html=1;" parent="1" vertex="1">
          <mxGeometry x="983" y="-785" width="94" height="61.5" as="geometry" />
        </mxCell>
        <mxCell id="S25MgAnCojjL08_6ieTA-150" value="locate" style="ellipse;whiteSpace=wrap;html=1;" parent="1" vertex="1">
          <mxGeometry x="1028" y="-627.75" width="94" height="61.5" as="geometry" />
        </mxCell>
        <mxCell id="S25MgAnCojjL08_6ieTA-151" value="visited" style="ellipse;whiteSpace=wrap;html=1;" parent="1" vertex="1">
          <mxGeometry x="922" y="-599" width="94" height="61.5" as="geometry" />
        </mxCell>
        <mxCell id="S25MgAnCojjL08_6ieTA-152" value="" style="endArrow=classic;html=1;rounded=0;fontSize=12;startSize=8;endSize=8;curved=1;entryX=0;entryY=0.5;entryDx=0;entryDy=0;exitX=1;exitY=0.5;exitDx=0;exitDy=0;" parent="1" source="S25MgAnCojjL08_6ieTA-11" target="S25MgAnCojjL08_6ieTA-151" edge="1">
          <mxGeometry width="50" height="50" relative="1" as="geometry">
            <mxPoint x="807" y="-544" as="sourcePoint" />
            <mxPoint x="857" y="-594" as="targetPoint" />
          </mxGeometry>
        </mxCell>
        <mxCell id="S25MgAnCojjL08_6ieTA-153" value="" style="endArrow=classic;html=1;rounded=0;fontSize=12;startSize=8;endSize=8;curved=1;entryX=0;entryY=0.5;entryDx=0;entryDy=0;exitX=1;exitY=0.5;exitDx=0;exitDy=0;" parent="1" source="S25MgAnCojjL08_6ieTA-11" target="S25MgAnCojjL08_6ieTA-150" edge="1">
          <mxGeometry width="50" height="50" relative="1" as="geometry">
            <mxPoint x="955.5" y="-978" as="sourcePoint" />
            <mxPoint x="1062.5" y="-871" as="targetPoint" />
          </mxGeometry>
        </mxCell>
        <mxCell id="S25MgAnCojjL08_6ieTA-154" value="" style="endArrow=classic;html=1;rounded=0;fontSize=12;startSize=8;endSize=8;curved=1;entryX=0;entryY=0.5;entryDx=0;entryDy=0;exitX=1;exitY=0.5;exitDx=0;exitDy=0;" parent="1" source="S25MgAnCojjL08_6ieTA-11" target="S25MgAnCojjL08_6ieTA-149" edge="1">
          <mxGeometry width="50" height="50" relative="1" as="geometry">
            <mxPoint x="848" y="-948" as="sourcePoint" />
            <mxPoint x="955" y="-841" as="targetPoint" />
          </mxGeometry>
        </mxCell>
        <mxCell id="S25MgAnCojjL08_6ieTA-155" value="" style="endArrow=classic;html=1;rounded=0;fontSize=12;startSize=8;endSize=8;curved=1;entryX=0;entryY=1;entryDx=0;entryDy=0;exitX=1;exitY=0.5;exitDx=0;exitDy=0;" parent="1" source="S25MgAnCojjL08_6ieTA-11" target="S25MgAnCojjL08_6ieTA-148" edge="1">
          <mxGeometry width="50" height="50" relative="1" as="geometry">
            <mxPoint x="735" y="-912" as="sourcePoint" />
            <mxPoint x="842" y="-805" as="targetPoint" />
          </mxGeometry>
        </mxCell>
        <mxCell id="S25MgAnCojjL08_6ieTA-156" value="MLevel&lt;div&gt;(자연,역사전통)&lt;/div&gt;" style="ellipse;whiteSpace=wrap;html=1;" parent="1" vertex="1">
          <mxGeometry x="1039.5" y="-706" width="94" height="61.5" as="geometry" />
        </mxCell>
        <mxCell id="S25MgAnCojjL08_6ieTA-157" value="" style="endArrow=classic;html=1;rounded=0;fontSize=12;startSize=8;endSize=8;curved=1;entryX=0;entryY=0.5;entryDx=0;entryDy=0;exitX=1;exitY=0.5;exitDx=0;exitDy=0;" parent="1" source="S25MgAnCojjL08_6ieTA-11" target="S25MgAnCojjL08_6ieTA-156" edge="1">
          <mxGeometry width="50" height="50" relative="1" as="geometry">
            <mxPoint x="804.5" y="-695.9999999999998" as="sourcePoint" />
            <mxPoint x="1011.5" y="-762" as="targetPoint" />
          </mxGeometry>
        </mxCell>
        <mxCell id="S25MgAnCojjL08_6ieTA-158" value="&lt;font color=&quot;#ff0000&quot;&gt;id&lt;/font&gt;" style="ellipse;whiteSpace=wrap;html=1;" parent="1" vertex="1">
          <mxGeometry x="-125" y="-594.75" width="106" height="60" as="geometry" />
        </mxCell>
        <mxCell id="S25MgAnCojjL08_6ieTA-159" value="name" style="ellipse;whiteSpace=wrap;html=1;" parent="1" vertex="1">
          <mxGeometry x="-60" y="-679.75" width="94" height="61.5" as="geometry" />
        </mxCell>
        <mxCell id="S25MgAnCojjL08_6ieTA-160" value="ELevel&lt;div&gt;(실내,실외)&lt;/div&gt;" style="ellipse;whiteSpace=wrap;html=1;" parent="1" vertex="1">
          <mxGeometry x="38" y="-710.75" width="94" height="61.5" as="geometry" />
        </mxCell>
        <mxCell id="S25MgAnCojjL08_6ieTA-161" value="locate" style="ellipse;whiteSpace=wrap;html=1;" parent="1" vertex="1">
          <mxGeometry x="146" y="-666.75" width="94" height="61.5" as="geometry" />
        </mxCell>
        <mxCell id="S25MgAnCojjL08_6ieTA-163" value="visited" style="ellipse;whiteSpace=wrap;html=1;" parent="1" vertex="1">
          <mxGeometry x="212" y="-598.75" width="94" height="61.5" as="geometry" />
        </mxCell>
        <mxCell id="S25MgAnCojjL08_6ieTA-164" value="" style="endArrow=classic;html=1;rounded=0;fontSize=12;startSize=8;endSize=8;curved=1;entryX=0.657;entryY=0.978;entryDx=0;entryDy=0;entryPerimeter=0;exitX=0.5;exitY=0;exitDx=0;exitDy=0;" parent="1" source="S25MgAnCojjL08_6ieTA-12" target="S25MgAnCojjL08_6ieTA-158" edge="1">
          <mxGeometry width="50" height="50" relative="1" as="geometry">
            <mxPoint x="1" y="-307.75" as="sourcePoint" />
            <mxPoint x="51" y="-357.75" as="targetPoint" />
          </mxGeometry>
        </mxCell>
        <mxCell id="S25MgAnCojjL08_6ieTA-165" value="" style="endArrow=classic;html=1;rounded=0;fontSize=12;startSize=8;endSize=8;curved=1;entryX=0.639;entryY=0.97;entryDx=0;entryDy=0;entryPerimeter=0;" parent="1" source="S25MgAnCojjL08_6ieTA-12" target="S25MgAnCojjL08_6ieTA-159" edge="1">
          <mxGeometry width="50" height="50" relative="1" as="geometry">
            <mxPoint x="364" y="-552.75" as="sourcePoint" />
            <mxPoint x="270" y="-604.75" as="targetPoint" />
          </mxGeometry>
        </mxCell>
        <mxCell id="S25MgAnCojjL08_6ieTA-166" value="" style="endArrow=classic;html=1;rounded=0;fontSize=12;startSize=8;endSize=8;curved=1;entryX=0;entryY=0.5;entryDx=0;entryDy=0;exitX=0.5;exitY=0;exitDx=0;exitDy=0;" parent="1" source="S25MgAnCojjL08_6ieTA-12" target="S25MgAnCojjL08_6ieTA-163" edge="1">
          <mxGeometry width="50" height="50" relative="1" as="geometry">
            <mxPoint x="443" y="-605.75" as="sourcePoint" />
            <mxPoint x="349" y="-657.75" as="targetPoint" />
          </mxGeometry>
        </mxCell>
        <mxCell id="S25MgAnCojjL08_6ieTA-167" value="" style="endArrow=classic;html=1;rounded=0;fontSize=12;startSize=8;endSize=8;curved=1;entryX=0;entryY=0.5;entryDx=0;entryDy=0;exitX=0.5;exitY=0;exitDx=0;exitDy=0;" parent="1" source="S25MgAnCojjL08_6ieTA-12" target="S25MgAnCojjL08_6ieTA-161" edge="1">
          <mxGeometry width="50" height="50" relative="1" as="geometry">
            <mxPoint x="451" y="-568" as="sourcePoint" />
            <mxPoint x="357" y="-620" as="targetPoint" />
          </mxGeometry>
        </mxCell>
        <mxCell id="S25MgAnCojjL08_6ieTA-168" value="" style="endArrow=classic;html=1;rounded=0;fontSize=12;startSize=8;endSize=8;curved=1;entryX=0.327;entryY=0.976;entryDx=0;entryDy=0;entryPerimeter=0;exitX=0.5;exitY=0;exitDx=0;exitDy=0;" parent="1" source="S25MgAnCojjL08_6ieTA-12" target="S25MgAnCojjL08_6ieTA-160" edge="1">
          <mxGeometry width="50" height="50" relative="1" as="geometry">
            <mxPoint x="462" y="-535.25" as="sourcePoint" />
            <mxPoint x="368" y="-587.25" as="targetPoint" />
          </mxGeometry>
        </mxCell>
        <mxCell id="S25MgAnCojjL08_6ieTA-169" value="comment" style="ellipse;whiteSpace=wrap;html=1;" parent="1" vertex="1">
          <mxGeometry x="175" y="-307" width="100" height="63" as="geometry" />
        </mxCell>
        <mxCell id="S25MgAnCojjL08_6ieTA-170" value="title" style="ellipse;whiteSpace=wrap;html=1;" parent="1" vertex="1">
          <mxGeometry x="75" y="-277" width="100" height="63" as="geometry" />
        </mxCell>
        <mxCell id="S25MgAnCojjL08_6ieTA-171" value="&lt;font color=&quot;#ff0000&quot;&gt;id&lt;/font&gt;" style="ellipse;whiteSpace=wrap;html=1;" parent="1" vertex="1">
          <mxGeometry x="35" y="-194" width="99" height="63" as="geometry" />
        </mxCell>
        <mxCell id="S25MgAnCojjL08_6ieTA-172" value="resdate" style="ellipse;whiteSpace=wrap;html=1;" parent="1" vertex="1">
          <mxGeometry x="292" y="-283" width="100" height="63" as="geometry" />
        </mxCell>
        <mxCell id="S25MgAnCojjL08_6ieTA-173" value="visited" style="ellipse;whiteSpace=wrap;html=1;" parent="1" vertex="1">
          <mxGeometry x="324" y="-200" width="100" height="63" as="geometry" />
        </mxCell>
        <mxCell id="S25MgAnCojjL08_6ieTA-174" value="" style="endArrow=classic;html=1;rounded=0;fontSize=12;startSize=8;endSize=8;curved=1;entryX=1;entryY=1;entryDx=0;entryDy=0;exitX=0.5;exitY=0;exitDx=0;exitDy=0;" parent="1" source="S25MgAnCojjL08_6ieTA-7" target="S25MgAnCojjL08_6ieTA-171" edge="1">
          <mxGeometry width="50" height="50" relative="1" as="geometry">
            <mxPoint x="164" y="42" as="sourcePoint" />
            <mxPoint x="214" y="-8" as="targetPoint" />
          </mxGeometry>
        </mxCell>
        <mxCell id="S25MgAnCojjL08_6ieTA-177" value="" style="endArrow=classic;html=1;rounded=0;fontSize=12;startSize=8;endSize=8;curved=1;entryX=1;entryY=1;entryDx=0;entryDy=0;exitX=0.5;exitY=0;exitDx=0;exitDy=0;" parent="1" source="S25MgAnCojjL08_6ieTA-7" target="S25MgAnCojjL08_6ieTA-170" edge="1">
          <mxGeometry width="50" height="50" relative="1" as="geometry">
            <mxPoint x="269" y="-139" as="sourcePoint" />
            <mxPoint x="263" y="-206" as="targetPoint" />
          </mxGeometry>
        </mxCell>
        <mxCell id="S25MgAnCojjL08_6ieTA-178" value="" style="endArrow=classic;html=1;rounded=0;fontSize=12;startSize=8;endSize=8;curved=1;entryX=0.5;entryY=1;entryDx=0;entryDy=0;exitX=0.5;exitY=0;exitDx=0;exitDy=0;" parent="1" source="S25MgAnCojjL08_6ieTA-7" target="S25MgAnCojjL08_6ieTA-169" edge="1">
          <mxGeometry width="50" height="50" relative="1" as="geometry">
            <mxPoint x="260.4" y="-100.22" as="sourcePoint" />
            <mxPoint x="189.4" y="-234.22" as="targetPoint" />
          </mxGeometry>
        </mxCell>
        <mxCell id="S25MgAnCojjL08_6ieTA-179" value="" style="endArrow=classic;html=1;rounded=0;fontSize=12;startSize=8;endSize=8;curved=1;entryX=0;entryY=1;entryDx=0;entryDy=0;exitX=0.5;exitY=0;exitDx=0;exitDy=0;" parent="1" source="S25MgAnCojjL08_6ieTA-7" target="S25MgAnCojjL08_6ieTA-172" edge="1">
          <mxGeometry width="50" height="50" relative="1" as="geometry">
            <mxPoint x="313" y="-60" as="sourcePoint" />
            <mxPoint x="242" y="-194" as="targetPoint" />
          </mxGeometry>
        </mxCell>
        <mxCell id="S25MgAnCojjL08_6ieTA-180" value="" style="endArrow=classic;html=1;rounded=0;fontSize=12;startSize=8;endSize=8;curved=1;entryX=0;entryY=1;entryDx=0;entryDy=0;exitX=0.5;exitY=0;exitDx=0;exitDy=0;" parent="1" source="S25MgAnCojjL08_6ieTA-7" target="S25MgAnCojjL08_6ieTA-173" edge="1">
          <mxGeometry width="50" height="50" relative="1" as="geometry">
            <mxPoint x="348" y="17" as="sourcePoint" />
            <mxPoint x="277" y="-117" as="targetPoint" />
          </mxGeometry>
        </mxCell>
        <mxCell id="S25MgAnCojjL08_6ieTA-181" value="&lt;font color=&quot;#ff0000&quot;&gt;id&lt;/font&gt;" style="ellipse;whiteSpace=wrap;html=1;" parent="1" vertex="1">
          <mxGeometry x="357.5" y="-447" width="106" height="60" as="geometry" />
        </mxCell>
        <mxCell id="S25MgAnCojjL08_6ieTA-182" value="등록" style="rhombus;whiteSpace=wrap;html=1;" parent="1" vertex="1">
          <mxGeometry x="548" y="112.5" width="80" height="80" as="geometry" />
        </mxCell>
        <mxCell id="S25MgAnCojjL08_6ieTA-187" value="n" style="text;html=1;align=center;verticalAlign=middle;whiteSpace=wrap;rounded=0;fontSize=16;" parent="1" vertex="1">
          <mxGeometry x="519" y="501" width="60" height="30" as="geometry" />
        </mxCell>
        <mxCell id="S25MgAnCojjL08_6ieTA-188" value="visited" style="ellipse;whiteSpace=wrap;html=1;" parent="1" vertex="1">
          <mxGeometry x="842.5" y="-438" width="100" height="63" as="geometry" />
        </mxCell>
        <mxCell id="S25MgAnCojjL08_6ieTA-189" value="SBought" style="rounded=0;whiteSpace=wrap;html=1;" parent="1" vertex="1">
          <mxGeometry x="541" y="-12" width="120" height="60" as="geometry" />
        </mxCell>
        <mxCell id="S25MgAnCojjL08_6ieTA-190" value="등록" style="rhombus;whiteSpace=wrap;html=1;" parent="1" vertex="1">
          <mxGeometry x="572" y="-173" width="80" height="89" as="geometry" />
        </mxCell>
        <mxCell id="S25MgAnCojjL08_6ieTA-191" value="&lt;font color=&quot;#ff0000&quot;&gt;id&lt;/font&gt;" style="ellipse;whiteSpace=wrap;html=1;" parent="1" vertex="1">
          <mxGeometry x="725" y="-171" width="99" height="63" as="geometry" />
        </mxCell>
        <mxCell id="S25MgAnCojjL08_6ieTA-192" value="&lt;font color=&quot;#0000ff&quot;&gt;uesrId&lt;/font&gt;" style="ellipse;whiteSpace=wrap;html=1;" parent="1" vertex="1">
          <mxGeometry x="843" y="-90.5" width="99" height="63" as="geometry" />
        </mxCell>
        <mxCell id="S25MgAnCojjL08_6ieTA-193" value="&lt;font color=&quot;#0000ff&quot;&gt;TourismId&lt;/font&gt;" style="ellipse;whiteSpace=wrap;html=1;" parent="1" vertex="1">
          <mxGeometry x="859" y="8" width="99" height="63" as="geometry" />
        </mxCell>
        <mxCell id="S25MgAnCojjL08_6ieTA-194" value="staydate" style="ellipse;whiteSpace=wrap;html=1;" parent="1" vertex="1">
          <mxGeometry x="869" y="112.5" width="109" height="62" as="geometry" />
        </mxCell>
        <mxCell id="S25MgAnCojjL08_6ieTA-195" value="resdate" style="ellipse;whiteSpace=wrap;html=1;" parent="1" vertex="1">
          <mxGeometry x="749" y="188" width="120" height="80" as="geometry" />
        </mxCell>
        <mxCell id="S25MgAnCojjL08_6ieTA-197" value="" style="endArrow=classic;html=1;rounded=0;fontSize=12;startSize=8;endSize=8;curved=1;exitX=1;exitY=0.5;exitDx=0;exitDy=0;entryX=0.5;entryY=1;entryDx=0;entryDy=0;" parent="1" source="S25MgAnCojjL08_6ieTA-6" target="S25MgAnCojjL08_6ieTA-182" edge="1">
          <mxGeometry width="50" height="50" relative="1" as="geometry">
            <mxPoint x="389" y="115" as="sourcePoint" />
            <mxPoint x="439" y="65" as="targetPoint" />
          </mxGeometry>
        </mxCell>
        <mxCell id="S25MgAnCojjL08_6ieTA-198" value="" style="endArrow=classic;html=1;rounded=0;fontSize=12;startSize=8;endSize=8;curved=1;exitX=0.5;exitY=1;exitDx=0;exitDy=0;entryX=0.5;entryY=0;entryDx=0;entryDy=0;" parent="1" source="S25MgAnCojjL08_6ieTA-189" target="S25MgAnCojjL08_6ieTA-182" edge="1">
          <mxGeometry width="50" height="50" relative="1" as="geometry">
            <mxPoint x="329" y="7.5" as="sourcePoint" />
            <mxPoint x="597" y="-118.5" as="targetPoint" />
          </mxGeometry>
        </mxCell>
        <mxCell id="S25MgAnCojjL08_6ieTA-201" value="" style="endArrow=classic;html=1;rounded=0;fontSize=12;startSize=8;endSize=8;curved=1;exitX=0.5;exitY=0;exitDx=0;exitDy=0;entryX=0.5;entryY=1;entryDx=0;entryDy=0;" parent="1" source="S25MgAnCojjL08_6ieTA-189" target="S25MgAnCojjL08_6ieTA-190" edge="1">
          <mxGeometry width="50" height="50" relative="1" as="geometry">
            <mxPoint x="452" y="27" as="sourcePoint" />
            <mxPoint x="439" y="92" as="targetPoint" />
          </mxGeometry>
        </mxCell>
        <mxCell id="S25MgAnCojjL08_6ieTA-202" value="" style="endArrow=classic;html=1;rounded=0;fontSize=12;startSize=8;endSize=8;curved=1;exitX=0.391;exitY=0.976;exitDx=0;exitDy=0;entryX=0.5;entryY=0;entryDx=0;entryDy=0;exitPerimeter=0;" parent="1" source="S25MgAnCojjL08_6ieTA-16" target="S25MgAnCojjL08_6ieTA-190" edge="1">
          <mxGeometry width="50" height="50" relative="1" as="geometry">
            <mxPoint x="532" y="-54" as="sourcePoint" />
            <mxPoint x="543" y="-126" as="targetPoint" />
          </mxGeometry>
        </mxCell>
        <mxCell id="S25MgAnCojjL08_6ieTA-205" value="" style="endArrow=classic;html=1;rounded=0;fontSize=12;startSize=8;endSize=8;curved=1;exitX=1;exitY=0.5;exitDx=0;exitDy=0;entryX=0.256;entryY=0.07;entryDx=0;entryDy=0;entryPerimeter=0;" parent="1" source="S25MgAnCojjL08_6ieTA-189" target="S25MgAnCojjL08_6ieTA-195" edge="1">
          <mxGeometry width="50" height="50" relative="1" as="geometry">
            <mxPoint x="684" y="59" as="sourcePoint" />
            <mxPoint x="671" y="124" as="targetPoint" />
          </mxGeometry>
        </mxCell>
        <mxCell id="S25MgAnCojjL08_6ieTA-206" value="" style="endArrow=classic;html=1;rounded=0;fontSize=12;startSize=8;endSize=8;curved=1;exitX=1;exitY=0.5;exitDx=0;exitDy=0;entryX=0;entryY=1;entryDx=0;entryDy=0;" parent="1" source="S25MgAnCojjL08_6ieTA-189" target="S25MgAnCojjL08_6ieTA-191" edge="1">
          <mxGeometry width="50" height="50" relative="1" as="geometry">
            <mxPoint x="690" y="-30.5" as="sourcePoint" />
            <mxPoint x="701" y="-102.5" as="targetPoint" />
          </mxGeometry>
        </mxCell>
        <mxCell id="S25MgAnCojjL08_6ieTA-207" value="" style="endArrow=classic;html=1;rounded=0;fontSize=12;startSize=8;endSize=8;curved=1;exitX=1;exitY=0.5;exitDx=0;exitDy=0;entryX=0;entryY=0.5;entryDx=0;entryDy=0;" parent="1" source="S25MgAnCojjL08_6ieTA-189" target="S25MgAnCojjL08_6ieTA-192" edge="1">
          <mxGeometry width="50" height="50" relative="1" as="geometry">
            <mxPoint x="686" y="57.34" as="sourcePoint" />
            <mxPoint x="764" y="-77.66" as="targetPoint" />
          </mxGeometry>
        </mxCell>
        <mxCell id="S25MgAnCojjL08_6ieTA-208" value="" style="endArrow=classic;html=1;rounded=0;fontSize=12;startSize=8;endSize=8;curved=1;exitX=1;exitY=0.5;exitDx=0;exitDy=0;entryX=0;entryY=0.5;entryDx=0;entryDy=0;" parent="1" source="S25MgAnCojjL08_6ieTA-189" target="S25MgAnCojjL08_6ieTA-193" edge="1">
          <mxGeometry width="50" height="50" relative="1" as="geometry">
            <mxPoint x="721" y="97" as="sourcePoint" />
            <mxPoint x="799" y="-38" as="targetPoint" />
          </mxGeometry>
        </mxCell>
        <mxCell id="S25MgAnCojjL08_6ieTA-209" value="" style="endArrow=classic;html=1;rounded=0;fontSize=12;startSize=8;endSize=8;curved=1;exitX=1;exitY=0.5;exitDx=0;exitDy=0;entryX=0;entryY=0.5;entryDx=0;entryDy=0;" parent="1" source="S25MgAnCojjL08_6ieTA-189" target="S25MgAnCojjL08_6ieTA-194" edge="1">
          <mxGeometry width="50" height="50" relative="1" as="geometry">
            <mxPoint x="765" y="147" as="sourcePoint" />
            <mxPoint x="843" y="12" as="targetPoint" />
          </mxGeometry>
        </mxCell>
        <mxCell id="S25MgAnCojjL08_6ieTA-210" value="1" style="text;html=1;align=center;verticalAlign=middle;whiteSpace=wrap;rounded=0;fontSize=16;" parent="1" vertex="1">
          <mxGeometry x="476" y="179" width="60" height="30" as="geometry" />
        </mxCell>
        <mxCell id="S25MgAnCojjL08_6ieTA-211" value="n" style="text;html=1;align=center;verticalAlign=middle;whiteSpace=wrap;rounded=0;fontSize=16;" parent="1" vertex="1">
          <mxGeometry x="500" y="58" width="60" height="30" as="geometry" />
        </mxCell>
        <mxCell id="S25MgAnCojjL08_6ieTA-212" value="n" style="text;html=1;align=center;verticalAlign=middle;whiteSpace=wrap;rounded=0;fontSize=16;" parent="1" vertex="1">
          <mxGeometry x="512" y="-63" width="60" height="30" as="geometry" />
        </mxCell>
        <mxCell id="S25MgAnCojjL08_6ieTA-213" value="1" style="text;html=1;align=center;verticalAlign=middle;whiteSpace=wrap;rounded=0;fontSize=16;" parent="1" vertex="1">
          <mxGeometry x="524" y="-206" width="60" height="30" as="geometry" />
        </mxCell>
        <mxCell id="S25MgAnCojjL08_6ieTA-214" value="name" style="ellipse;whiteSpace=wrap;html=1;" parent="1" vertex="1">
          <mxGeometry x="409" y="-518" width="117" height="68" as="geometry" />
        </mxCell>
        <mxCell id="S25MgAnCojjL08_6ieTA-215" value="price" style="ellipse;whiteSpace=wrap;html=1;" parent="1" vertex="1">
          <mxGeometry x="536" y="-548" width="99" height="71" as="geometry" />
        </mxCell>
        <mxCell id="S25MgAnCojjL08_6ieTA-217" value="" style="endArrow=classic;html=1;rounded=0;fontSize=12;startSize=8;endSize=8;curved=1;entryX=0.5;entryY=1;entryDx=0;entryDy=0;exitX=0.5;exitY=0;exitDx=0;exitDy=0;" parent="1" source="S25MgAnCojjL08_6ieTA-16" target="S25MgAnCojjL08_6ieTA-215" edge="1">
          <mxGeometry width="50" height="50" relative="1" as="geometry">
            <mxPoint x="725" y="-566.25" as="sourcePoint" />
            <mxPoint x="840" y="-491.25" as="targetPoint" />
          </mxGeometry>
        </mxCell>
        <mxCell id="S25MgAnCojjL08_6ieTA-218" value="" style="endArrow=classic;html=1;rounded=0;fontSize=12;startSize=8;endSize=8;curved=1;entryX=0.5;entryY=1;entryDx=0;entryDy=0;exitX=0.5;exitY=0;exitDx=0;exitDy=0;" parent="1" source="S25MgAnCojjL08_6ieTA-16" target="S25MgAnCojjL08_6ieTA-214" edge="1">
          <mxGeometry width="50" height="50" relative="1" as="geometry">
            <mxPoint x="805" y="-316" as="sourcePoint" />
            <mxPoint x="920" y="-241" as="targetPoint" />
          </mxGeometry>
        </mxCell>
        <mxCell id="S25MgAnCojjL08_6ieTA-219" value="" style="endArrow=classic;html=1;rounded=0;fontSize=12;startSize=8;endSize=8;curved=1;entryX=0;entryY=0.5;entryDx=0;entryDy=0;exitX=0.5;exitY=0;exitDx=0;exitDy=0;" parent="1" source="S25MgAnCojjL08_6ieTA-16" target="S25MgAnCojjL08_6ieTA-188" edge="1">
          <mxGeometry width="50" height="50" relative="1" as="geometry">
            <mxPoint x="890" y="-372" as="sourcePoint" />
            <mxPoint x="1005" y="-297" as="targetPoint" />
          </mxGeometry>
        </mxCell>
        <mxCell id="S25MgAnCojjL08_6ieTA-220" value="" style="endArrow=classic;html=1;rounded=0;fontSize=12;startSize=8;endSize=8;curved=1;entryX=0.5;entryY=1;entryDx=0;entryDy=0;exitX=0.5;exitY=0;exitDx=0;exitDy=0;" parent="1" source="S25MgAnCojjL08_6ieTA-16" target="S25MgAnCojjL08_6ieTA-181" edge="1">
          <mxGeometry width="50" height="50" relative="1" as="geometry">
            <mxPoint x="483.5" y="-248" as="sourcePoint" />
            <mxPoint x="482.5" y="-328" as="targetPoint" />
          </mxGeometry>
        </mxCell>
        <mxCell id="S25MgAnCojjL08_6ieTA-221" value="locate" style="ellipse;whiteSpace=wrap;html=1;" parent="1" vertex="1">
          <mxGeometry x="644" y="-564" width="99" height="71" as="geometry" />
        </mxCell>
        <mxCell id="S25MgAnCojjL08_6ieTA-222" value="" style="endArrow=classic;html=1;rounded=0;fontSize=12;startSize=8;endSize=8;curved=1;entryX=0.5;entryY=1;entryDx=0;entryDy=0;exitX=0.5;exitY=0;exitDx=0;exitDy=0;" parent="1" source="S25MgAnCojjL08_6ieTA-16" target="S25MgAnCojjL08_6ieTA-221" edge="1">
          <mxGeometry width="50" height="50" relative="1" as="geometry">
            <mxPoint x="705" y="-309.5" as="sourcePoint" />
            <mxPoint x="771" y="-444.5" as="targetPoint" />
          </mxGeometry>
        </mxCell>
        <mxCell id="S25MgAnCojjL08_6ieTA-223" value="comment" style="ellipse;whiteSpace=wrap;html=1;" parent="1" vertex="1">
          <mxGeometry x="759" y="-493" width="100" height="63" as="geometry" />
        </mxCell>
        <mxCell id="S25MgAnCojjL08_6ieTA-224" value="" style="endArrow=classic;html=1;rounded=0;fontSize=12;startSize=8;endSize=8;curved=1;entryX=0;entryY=0.5;entryDx=0;entryDy=0;exitX=0.5;exitY=0;exitDx=0;exitDy=0;" parent="1" source="S25MgAnCojjL08_6ieTA-16" target="S25MgAnCojjL08_6ieTA-223" edge="1">
          <mxGeometry width="50" height="50" relative="1" as="geometry">
            <mxPoint x="715" y="-329.72" as="sourcePoint" />
            <mxPoint x="839" y="-417.72" as="targetPoint" />
          </mxGeometry>
        </mxCell>
      </root>
    </mxGraphModel>
  </diagram>
</mxfile>
